{
  "accessors": [
    {
      "bufferView": 2,
      "componentType": 5126,
      "count": 65532,
      "max": [
        -0.009172032587230206,
        0.0010760483564808965,
        0.058944277465343475
      ],
      "min": [
        -0.10146546363830566,
        -0.238805890083313,
        -0.032461490482091904
      ],
      "type": "VEC3"
    },
    {
      "bufferView": 2,
      "byteOffset": 786384,
      "componentType": 5126,
      "count": 65532,
      "max": [
        1.0,
        1.0,
        1.0
      ],
      "min": [
        -1.0,
        -1.0,
        -1.0
      ],
      "type": "VEC3"
    },
    {
      "bufferView": 1,
      "componentType": 5126,
      "count": 65532,
      "max": [
        0.995703935623169,
        0.995699942111969
      ],
      "min": [
        0.004062000196427107,
        0.0041185361333191395
      ],
      "type": "VEC2"
    },
    {
      "bufferView": 0,
      "componentType": 5125,
      "count": 322056,
      "type": "SCALAR"
    },
    {
      "bufferView": 2,
      "byteOffset": 1572768,
      "componentType": 5126,
      "count": 12463,
      "max": [
        -0.029507888481020927,
        -0.05829380080103874,
        0.03451737388968468
      ],
      "min": [
        -0.08926014602184296,
        -0.149114727973938,
        -0.017891379073262215
      ],
      "type": "VEC3"
    },
    {
      "bufferView": 2,
      "byteOffset": 1722324,
      "componentType": 5126,
      "count": 12463,
      "max": [
        1.0,
        0.9407972097396851,
        1.0
      ],
      "min": [
        -1.0,
        -1.0,
        -1.0
      ],
      "type": "VEC3"
    },
    {
      "bufferView": 1,
      "byteOffset": 524256,
      "componentType": 5126,
      "count": 12463,
      "max": [
        0.9958249926567078,
        0.990070104598999
      ],
      "min": [
        0.0042436085641384125,
        0.0041185361333191395
      ],
      "type": "VEC2"
    },
    {
      "bufferView": 0,
      "byteOffset": 1288224,
      "componentType": 5125,
      "count": 50916,
      "type": "SCALAR"
    }
  ],
  "asset": {
    "extras": {
      "author": "eyesCloud3D (https://sketchfab.com/eyesCloud3D)",
      "license": "CC-BY-4.0 (http://creativecommons.org/licenses/by/4.0/)",
      "source": "https://sketchfab.com/3d-models/venus-de-milo-4dfc16b647ac4a629e57629baa0192ea",
      "title": "Venus de Milo"
    },
    "generator": "Sketchfab-16.64.0",
    "version": "2.0"
  },
  "bufferViews": [
    {
      "buffer": 0,
      "byteLength": 1491888,
      "name": "floatBufferViews",
      "target": 34963
    },
    {
      "buffer": 0,
      "byteLength": 623960,
      "byteOffset": 1491888,
      "byteStride": 8,
      "name": "floatBufferViews",
      "target": 34962
    },
    {
      "buffer": 0,
      "byteLength": 1871880,
      "byteOffset": 2115848,
      "byteStride": 12,
      "name": "floatBufferViews",
      "target": 34962
    }
  ],
  "buffers": [
    {
      "byteLength": 3987728,
      "uri": "scene.bin"
    }
  ],
  "images": [
    {
      "uri": "textures/material_baseColor.png"
    }
  ],
  "materials": [
    {
      "doubleSided": true,
      "name": "material",
      "pbrMetallicRoughness": {
        "baseColorTexture": {
          "index": 0
        },
        "metallicFactor": 0.0
      }
    }
  ],
  "meshes": [
    {
      "name": "Object_0",
      "primitives": [
        {
          "attributes": {
            "NORMAL": 1,
            "POSITION": 0,
            "TEXCOORD_0": 2
          },
          "indices": 3,
          "material": 0,
          "mode": 4
        }
      ]
    },
    {
      "name": "Object_1",
      "primitives": [
        {
          "attributes": {
            "NORMAL": 5,
            "POSITION": 4,
            "TEXCOORD_0": 6
          },
          "indices": 7,
          "material": 0,
          "mode": 4
        }
      ]
    }
  ],
  "nodes": [
    {
      "children": [
        1
      ],
      "matrix": [
        -0.02256031706929207,
        0.0012094537960363194,
        0.9997447729110718,
        0.0,
        0.0006939941085875034,
        -0.9999989867210388,
        0.0012254221364853546,
        0.0,
        0.99974524974823,
        0.0007214628858491729,
        0.022559456527233124,
        0.0,
        0.0,
        0.0,
        0.0,
        1.0
      ],
      "name": "Sketchfab_model"
    },
    {
      "children": [
        2,
        3
      ],
      "name": "Venus_estatua.obj.cleaner.materialmerger.gles"
    },
    {
      "mesh": 0,
      "name": "Object_2"
    },
    {
      "mesh": 1,
      "name": "Object_3"
    }
  ],
  "samplers": [
    {
      "magFilter": 9729,
      "minFilter": 9987,
      "wrapS": 10497,
      "wrapT": 10497
    }
  ],
  "scene": 0,
  "scenes": [
    {
      "name": "Sketchfab_Scene",
      "nodes": [
        0
      ]
    }
  ],
  "textures": [
    {
      "sampler": 0,
      "source": 0
    }
  ]
}
