{
  "accessors": [
    {
      "bufferView": 2,
      "componentType": 5126,
      "count": 42708,
      "max": [
        0.18754369020462036,
        0.47221800684928894,
        1.022375464439392
      ],
      "min": [
        -0.2258254587650299,
        -0.4707733690738678,
        -0.0006743100238963962
      ],
      "type": "VEC3"
    },
    {
      "bufferView": 2,
      "byteOffset": 512496,
      "componentType": 5126,
      "count": 42708,
      "max": [
        0.9999432563781738,
        0.9999812841415405,
        0.9999951124191284
      ],
      "min": [
        -0.9999963045120239,
        -0.9999663829803467,
        -0.9999669790267944
      ],
      "type": "VEC3"
    },
    {
      "bufferView": 3,
      "componentType": 5126,
      "count": 42708,
      "max": [
        1.0,
        0.9999101161956787,
        0.999923825263977,
        1.0
      ],
      "min": [
        -0.9999738335609436,
        -0.9999706745147705,
        -0.999973475933075,
        -1.0
      ],
      "type": "VEC4"
    },
    {
      "bufferView": 1,
      "componentType": 5126,
      "count": 42708,
      "max": [
        0.9990770220756531,
        0.9990068674087524
      ],
      "min": [
        0.0009230008581653237,
        0.0009230008581653237
      ],
      "type": "VEC2"
    },
    {
      "bufferView": 0,
      "componentType": 5125,
      "count": 205581,
      "type": "SCALAR"
    }
  ],
  "asset": {
    "extras": {
      "author": "Loïc Norgeot (https://sketchfab.com/norgeotloic)",
      "license": "CC-BY-4.0 (http://creativecommons.org/licenses/by/4.0/)",
      "source": "https://sketchfab.com/3d-models/equestrian-statue-of-napoleon-ad3fe0536f4f40c5a2de5b5649b2e639",
      "title": "Equestrian statue of Napoleon"
    },
    "generator": "Sketchfab-12.59.0",
    "version": "2.0"
  },
  "bufferViews": [
    {
      "buffer": 0,
      "byteLength": 822324,
      "byteOffset": 0,
      "name": "floatBufferViews",
      "target": 34963
    },
    {
      "buffer": 0,
      "byteLength": 341664,
      "byteOffset": 822324,
      "byteStride": 8,
      "name": "floatBufferViews",
      "target": 34962
    },
    {
      "buffer": 0,
      "byteLength": 1024992,
      "byteOffset": 1163988,
      "byteStride": 12,
      "name": "floatBufferViews",
      "target": 34962
    },
    {
      "buffer": 0,
      "byteLength": 683328,
      "byteOffset": 2188980,
      "byteStride": 16,
      "name": "floatBufferViews",
      "target": 34962
    }
  ],
  "buffers": [
    {
      "byteLength": 2872308,
      "uri": "scene.bin"
    }
  ],
  "images": [
    {
      "uri": "textures/bake_target_baseColor.jpeg"
    },
    {
      "uri": "textures/bake_target_metallicRoughness.png"
    },
    {
      "uri": "textures/bake_target_normal.jpeg"
    }
  ],
  "materials": [
    {
      "doubleSided": true,
      "name": "bake_target",
      "normalTexture": {
        "index": 2
      },
      "pbrMetallicRoughness": {
        "baseColorTexture": {
          "index": 0
        },
        "metallicRoughnessTexture": {
          "index": 1
        }
      }
    }
  ],
  "meshes": [
    {
      "name": "parts_main.o_bake_target_0",
      "primitives": [
        {
          "attributes": {
            "NORMAL": 1,
            "POSITION": 0,
            "TANGENT": 2,
            "TEXCOORD_0": 3
          },
          "indices": 4,
          "material": 0,
          "mode": 4
        }
      ]
    }
  ],
  "nodes": [
    {
      "children": [
        1
      ],
      "matrix": [
        1.0,
        0.0,
        0.0,
        0.0,
        0.0,
        2.220446049250313e-16,
        -1.0,
        0.0,
        0.0,
        1.0,
        2.220446049250313e-16,
        0.0,
        0.0,
        0.0,
        0.0,
        1.0
      ],
      "name": "Sketchfab_model"
    },
    {
      "children": [
        2
      ],
      "matrix": [
        1.0,
        0.0,
        0.0,
        0.0,
        0.0,
        0.0,
        1.0,
        0.0,
        0.0,
        -1.0,
        0.0,
        0.0,
        0.0,
        0.0,
        0.0,
        1.0
      ],
      "name": "085b39d2631b4e4d858b96ae24573539.fbx"
    },
    {
      "children": [
        3
      ],
      "name": "RootNode"
    },
    {
      "children": [
        4
      ],
      "matrix": [
        100.0,
        0.0,
        0.0,
        0.0,
        0.0,
        -4.371139006309477e-06,
        -99.9999999999999,
        0.0,
        0.0,
        99.9999999999999,
        -4.371139006309477e-06,
        0.0,
        0.0,
        0.0,
        0.0,
        1.0
      ],
      "name": "parts_main.o"
    },
    {
      "mesh": 0,
      "name": "parts_main.o_bake_target_0"
    }
  ],
  "samplers": [
    {
      "magFilter": 9729,
      "minFilter": 9987,
      "wrapS": 10497,
      "wrapT": 10497
    }
  ],
  "scene": 0,
  "scenes": [
    {
      "name": "Sketchfab_Scene",
      "nodes": [
        0
      ]
    }
  ],
  "textures": [
    {
      "sampler": 0,
      "source": 0
    },
    {
      "sampler": 0,
      "source": 1
    },
    {
      "sampler": 0,
      "source": 2
    }
  ]
}
