{
  "accessors": [
    {
      "bufferView": 2,
      "componentType": 5126,
      "count": 8634,
      "max": [
        0.4349220097064972,
        0.9989929795265198,
        0.2622550129890442
      ],
      "min": [
        -0.4093720018863678,
        -1.0024000406265259,
        -0.266431987285614
      ],
      "type": "VEC3"
    },
    {
      "bufferView": 2,
      "byteOffset": 103608,
      "componentType": 5126,
      "count": 8634,
      "max": [
        0.9998313784599304,
        0.9966148734092712,
        0.9999998807907104
      ],
      "min": [
        -0.999683678150177,
        -0.9999999403953552,
        -0.9999377131462097
      ],
      "type": "VEC3"
    },
    {
      "bufferView": 1,
      "componentType": 5126,
      "count": 8634,
      "max": [
        0.9987090229988098,
        0.9988769888877869
      ],
      "min": [
        0.0011230000527575612,
        0.0011230000527575612
      ],
      "type": "VEC2"
    },
    {
      "bufferView": 0,
      "componentType": 5125,
      "count": 30000,
      "type": "SCALAR"
    }
  ],
  "asset": {
    "extras": {
      "author": "Rafael Platini (https://sketchfab.com/rafah.platini)",
      "license": "CC-BY-4.0 (http://creativecommons.org/licenses/by/4.0/)",
      "source": "https://sketchfab.com/3d-models/julio-cesar-100-ac-44-ac-b5eb46afab774846a4ce4341d65698ea",
      "title": "Júlio César (100 a.C. – 44 a.C.)"
    },
    "generator": "Sketchfab-16.61.0",
    "version": "2.0"
  },
  "bufferViews": [
    {
      "buffer": 0,
      "byteLength": 120000,
      "byteOffset": 0,
      "name": "floatBufferViews",
      "target": 34963
    },
    {
      "buffer": 0,
      "byteLength": 69072,
      "byteOffset": 120000,
      "byteStride": 8,
      "name": "floatBufferViews",
      "target": 34962
    },
    {
      "buffer": 0,
      "byteLength": 207216,
      "byteOffset": 189072,
      "byteStride": 12,
      "name": "floatBufferViews",
      "target": 34962
    }
  ],
  "buffers": [
    {
      "byteLength": 396288,
      "uri": "scene.bin"
    }
  ],
  "images": [
    {
      "uri": "textures/Material.001_baseColor.png"
    }
  ],
  "materials": [
    {
      "doubleSided": true,
      "name": "Material.001",
      "pbrMetallicRoughness": {
        "baseColorTexture": {
          "index": 0
        },
        "metallicFactor": 0.0,
        "roughnessFactor": 0.8211145618000169
      }
    }
  ],
  "meshes": [
    {
      "name": "Mesh1_Mesh1.010_Material.001_0",
      "primitives": [
        {
          "attributes": {
            "NORMAL": 1,
            "POSITION": 0,
            "TEXCOORD_0": 2
          },
          "indices": 3,
          "material": 0,
          "mode": 4
        }
      ]
    }
  ],
  "nodes": [
    {
      "children": [
        1
      ],
      "matrix": [
        1.0,
        0.0,
        0.0,
        0.0,
        0.0,
        2.220446049250313e-16,
        -1.0,
        0.0,
        0.0,
        1.0,
        2.220446049250313e-16,
        0.0,
        0.0,
        0.0,
        0.0,
        1.0
      ],
      "name": "Sketchfab_model"
    },
    {
      "children": [
        2
      ],
      "matrix": [
        0.009999999776482582,
        0.0,
        0.0,
        0.0,
        0.0,
        0.0,
        0.009999999776482582,
        0.0,
        0.0,
        -0.009999999776482582,
        0.0,
        0.0,
        0.0,
        0.0,
        0.0,
        1.0
      ],
      "name": "juliocesar.fbx"
    },
    {
      "children": [
        3
      ],
      "name": "RootNode"
    },
    {
      "children": [
        4
      ],
      "matrix": [
        100.0,
        0.0,
        0.0,
        0.0,
        0.0,
        99.99999999999972,
        -7.5497901264043296e-06,
        0.0,
        0.0,
        7.5497901264043296e-06,
        99.99999999999972,
        0.0,
        0.0,
        0.0,
        0.0,
        1.0
      ],
      "name": "Mesh1_Mesh1.010"
    },
    {
      "mesh": 0,
      "name": "Mesh1_Mesh1.010_Material.001_0"
    }
  ],
  "samplers": [
    {
      "magFilter": 9729,
      "minFilter": 9987,
      "wrapS": 10497,
      "wrapT": 10497
    }
  ],
  "scene": 0,
  "scenes": [
    {
      "name": "Sketchfab_Scene",
      "nodes": [
        0
      ]
    }
  ],
  "textures": [
    {
      "sampler": 0,
      "source": 0
    }
  ]
}
